<?xml version="1.0" encoding="UTF-8"?>
<svg width="16" height="16" version="1.1" viewBox="0 0 4.2333 4.2333" xmlns="http://www.w3.org/2000/svg">
    <path d="m0.79375 0.26458-0.26458 5.1677e-4c-0.14617 1.4281e-4 -0.26458 0.11842-0.26458 0.26458v3.1755c4e-8 0.14613 0.11846 0.26458 0.26458 0.26458h3.175c0.14613 0 0.26459-0.11846 0.26458-0.26458v-2.6464l-0.79375-0.79375h-0.26458v1.0583h-2.1167v-1.0589zm1.3229 5.1677e-4v0.79375h0.52917v-0.79375h-0.52917zm0 1.8516a0.52917 0.52917 0 0 1 0.52917 0.52917 0.52917 0.52917 0 0 1-0.52917 0.52917 0.52917 0.52917 0 0 1-0.52917-0.52917 0.52917 0.52917 0 0 1 0.52917-0.52917z" color="#000000" color-rendering="auto" dominant-baseline="auto" fill="#4d9ae5" image-rendering="auto" shape-rendering="auto" solid-color="#000000" stop-color="#000000" style="font-feature-settings:normal;font-variant-alternates:normal;font-variant-caps:normal;font-variant-east-asian:normal;font-variant-ligatures:normal;font-variant-numeric:normal;font-variant-position:normal;font-variation-settings:normal;inline-size:0;isolation:auto;mix-blend-mode:normal;paint-order:stroke fill markers;shape-margin:0;shape-padding:0;text-decoration-color:#000000;text-decoration-line:none;text-decoration-style:solid;text-indent:0;text-orientation:mixed;text-transform:none;white-space:normal"/>
</svg>
